HIERARCHY
ROOT Hips
{
  OFFSET -331.093 83.8371 -317.828
  CHANNELS 6 Xposition Yposition Zposition Zrotation Xrotation Yrotation
  JOINT LeftUpLeg
  {
    OFFSET 8.64259 1.95398 -2.38835
    CHANNELS 3 Zrotation Xrotation Yrotation
    JOINT LeftLeg
    {
      OFFSET 43.7702 0 0
      CHANNELS 3 Zrotation Xrotation Yrotation
      JOINT LeftFoot
      {
        OFFSET 40.6238 0 0
        CHANNELS 3 Zrotation Xrotation Yrotation
        JOINT LeftToeBase
        {
          OFFSET 12.7242 0 0
          CHANNELS 3 Zrotation Xrotation Yrotation
          End Site
          {
            OFFSET 0 0 0
          }
        }
      }
    }
  }
  JOINT RightUpLeg
  {
    OFFSET -8.2249 1.95398 -2.59336
    CHANNELS 3 Zrotation Xrotation Yrotation
    JOINT RightLeg
    {
      OFFSET 43.5653 0 0
      CHANNELS 3 Zrotation Xrotation Yrotation
      JOINT RightFoot
      {
        OFFSET 40.6238 0 0
        CHANNELS 3 Zrotation Xrotation Yrotation
        JOINT RightToeBase
        {
          OFFSET 12.7242 0 0
          CHANNELS 3 Zrotation Xrotation Yrotation
          End Site
          {
            OFFSET 0 0 0
          }
        }
      }
    }
  }
  JOINT Spine
  {
    OFFSET 0.165834 0.87714 6.61349
    CHANNELS 3 Zrotation Xrotation Yrotation
    JOINT Spine1
    {
      OFFSET 7.38963 1.71661e-005 0
      CHANNELS 3 Zrotation Xrotation Yrotation
      JOINT Spine2
      {
        OFFSET 11.9445 1.14441e-005 0
        CHANNELS 3 Zrotation Xrotation Yrotation
        JOINT Spine3
        {
          OFFSET 14.7254 4.19617e-005 0
          CHANNELS 3 Zrotation Xrotation Yrotation
          JOINT Spine4
          {
            OFFSET 10.9679 0 0
            CHANNELS 3 Zrotation Xrotation Yrotation
            JOINT RightShoulder
            {
              OFFSET 2.46616 -1.6653 3.69651
              CHANNELS 3 Zrotation Xrotation Yrotation
              JOINT RightArm
              {
                OFFSET 13.0012 0 0
                CHANNELS 3 Zrotation Xrotation Yrotation
                JOINT RightForeArm
                {
                  OFFSET 28.7848 1.62311e-005 0
                  CHANNELS 3 Zrotation Xrotation Yrotation
                  JOINT RightHand
                  {
                    OFFSET 26.5688 1.62095e-005 0
                    CHANNELS 3 Zrotation Xrotation Yrotation
                    End Site
                    {
                      OFFSET 0 0 0
                    }
                  }
                }
              }
            }
            JOINT LeftShoulder
            {
              OFFSET 2.38034 -1.29275 -3.7523
              CHANNELS 3 Zrotation Xrotation Yrotation
              JOINT LeftArm
              {
                OFFSET 16.3182 6.07031e-005 0
                CHANNELS 3 Zrotation Xrotation Yrotation
                JOINT LeftForeArm
                {
                  OFFSET 27.0901 0 0
                  CHANNELS 3 Zrotation Xrotation Yrotation
                  JOINT LeftHand
                  {
                    OFFSET 24.5451 1.51738e-005 0
                    CHANNELS 3 Zrotation Xrotation Yrotation
                    End Site
                    {
                      OFFSET 0 0 0
                    }
                  }
                }
              }
            }
            JOINT Neck
            {
              OFFSET 5.0226 -0.0266342 0
              CHANNELS 3 Zrotation Xrotation Yrotation
              JOINT Head
              {
                OFFSET 6.69364 2.86102e-005 0
                CHANNELS 3 Zrotation Xrotation Yrotation
                End Site
                {
                  OFFSET 0 0 0
                }
              }
            }
          }
        }
      }
    }
  }
}
MOTION
Frames:	12
Frame Time:	0.0416667
-322.844 79.9647 -316.872 89.447 -44.7617 86.9757 -173.675 47.7453 85.2389 -69.6418 14.6087 -6.5301 82.8634 6.96352 2.99099 29.2799 3.12616 11.3731 -174.4 56.4591 85.1362 -82.0902 -16.9245 0.675411 86.7348 -17.7381 -5.80146 -98.3337 1.72389 0.990865 0.359035 7.85444 -89.4557 11.1599 0.967542 0.988906 -0.511023 1.01013 0.945368 -23.0446 0.625636 1.23396 -3.03193 0.625618 1.23395 91.8927 -38.0087 -100.275 31.775 -13.5351 1.67948 -14.5523 -8.16492 -58.7317 -13.1456 -0.892954 2.57814 -93.9135 -50.5274 73.5516 -29.4671 5.12231 21.6714 7.52747 22.7391 -31.1533 10.4914 1.0197 5.45462 1.4634 0.584015 4.13024 -0.315464 -0.0872065 -2.40836 
-320.35 81.2566 -314.986 84.2095 -50.2874 81.3759 -170.844 46.5379 84.7297 -66.4987 12.9156 -9.63214 81.6469 10.1033 7.0158 29.4987 1.97637 6.09778 -168.274 56.4079 83.1815 -83.4489 -18.1196 -0.895099 92.1836 -19.6863 -5.50419 -103.697 -6.2795 5.73394 0.933996 7.43118 -89.1554 11.9952 2.25563 1.44294 0.325584 2.31693 1.34224 -22.2134 1.71776 2.05413 -2.20079 1.71775 2.05412 92.3828 -38.0953 -99.381 33.8554 -14.409 4.29494 -13.2962 -8.35914 -57.1814 -13.3283 -0.837607 1.95339 -94.1554 -50.0057 73.0518 -29.3339 5.24353 19.7342 7.02426 22.326 -30.2266 8.5443 0.918982 6.14499 1.29669 0.388334 3.7935 -1.24807 -0.204051 -2.43713 
-317.6 84.4502 -313.186 84.4606 -49.7329 81.3794 -171.798 40.8391 83.2824 -60.6224 10.2068 -8.13916 78.768 8.52379 6.53837 30.2688 1.57426 2.00082 -171.342 50.2151 84.5426 -83.1115 -19.8489 -1.89147 100.544 -23.1387 -5.07003 -108.367 -19.2682 12.4609 0.671535 7.41362 -89.1643 12.0335 1.7296 1.47797 0.362991 1.79296 1.40041 -22.1705 1.20553 1.92937 -2.15784 1.20553 1.92937 92.6557 -38.4724 -98.8034 34.9364 -15.9951 6.13063 -12.5762 -8.76529 -56.0164 -12.0951 -0.838382 2.61294 -93.9883 -49.6275 73.1911 -29.7655 5.08414 16.9459 7.35692 21.1648 -31.0523 7.97873 0.768865 5.10224 1.95087 1.14783 4.04109 -1.98919 0.50054 -2.41136 
-314.439 88.4489 -310.678 85.6407 -48.9563 82.804 -174.158 32.6383 82.6641 -51.6207 7.92742 -5.55568 75.6243 7.5106 6.88645 31.0816 1.99543 1.14579 -175.163 41.9579 86.7753 -79.952 -20.5068 -2.6604 106.269 -25.5191 -4.47699 -108.907 -24.5227 15.2493 0.433952 7.43182 -89.2612 12.0011 1.21136 1.3423 0.330068 1.26928 1.28769 -22.2016 0.752005 1.64424 -2.18898 0.75201 1.64425 92.1288 -39.7591 -99.4103 35.5765 -16.4679 9.34183 -11.7038 -8.57584 -53.7406 -11.2279 -0.663215 1.35014 -94.3581 -49.3685 72.5706 -29.0682 6.88079 14.0959 7.21032 18.8191 -33.0555 9.58834 0.821307 4.31692 1.19894 1.50482 3.5893 -1.52797 0.940504 -1.79381 
-310.396 92.5026 -307.295 86.1974 -47.7048 84.7999 -175.831 23.115 83.3754 -39.9881 9.11627 -3.42041 71.4905 6.62065 7.8252 33.036 3.58397 1.47742 -179.007 33.4755 89.2648 -72.7381 -19.1582 -2.91752 105.125 -24.7995 -4.6428 -105.758 -16.0957 11.2269 0.172607 7.44167 -89.5369 11.9875 0.561715 0.862579 0.31645 0.599134 0.837017 -22.2167 0.276519 0.991499 -2.20407 0.276524 0.991509 92.3625 -40.0959 -98.9228 36.4644 -16.5319 12.4801 -11.8365 -10.2489 -51.3132 -10.3658 -0.545185 0.289899 -95.5735 -49.5695 70.8392 -27.4003 9.39381 11.9621 7.26648 14.9146 -37.4897 12.241 0.934814 3.61375 1.07139 1.55706 2.86194 -1.9278 1.11109 -0.185008 
-306.363 95.2444 -303.322 86.2608 -45.8459 85.9082 -176.616 14.439 84.1438 -29.6011 10.1357 -2.05145 68.4693 5.34158 6.54061 33.7573 4.51038 2.73273 178.039 28.3402 90.8912 -63.9475 -13.6806 -2.55286 93.0124 -18.3644 -5.32403 -77.5406 4.01078 -3.84321 -0.158209 7.42854 -89.729 12.0165 -0.186618 0.560924 0.345388 -0.161753 0.568588 -22.1891 -0.346583 0.478907 -2.17644 -0.346581 0.478906 92.8225 -40.1112 -98.1221 37.8846 -17.1196 15.0474 -13.1465 -12.872 -50.0916 -9.10669 -0.613868 2.35157 -94.8664 -48.9514 71.6955 -26.1666 11.6611 8.46453 9.30562 13.2837 -43.0542 14.3918 1.34561 5.37781 0.620422 1.98376 2.77897 -2.01136 1.5567 -0.412995 
-302.349 96.2752 -299.469 85.5158 -44.1707 85.4366 -177.088 8.00424 84.1979 -22.2608 12.6357 -1.66585 66.1013 5.34511 7.49286 35.5379 6.82925 5.44478 176.631 29.7891 91.0158 -54.0456 -2.89458 -2.05191 68.4493 -4.60927 -2.4715 11.9715 3.22282 -17.0768 -0.473794 7.3961 -89.7225 12.0839 -0.810723 0.642808 0.413015 -0.781653 0.677865 -22.1236 -0.966432 0.369424 -2.111 -0.966438 0.369419 92.6164 -41.124 -98.244 37.8017 -15.986 17.5167 -11.5097 -12.7746 -48.6252 0.729894 -0.0660982 2.2798 -93.9181 -47.2326 72.6077 -24.3318 13.006 4.56445 9.91819 10.023 -47.3736 14.896 1.12601 3.59779 1.06812 1.92287 1.00913 -2.69642 1.74597 0.465918 
-298.5 95.6921 -295.589 85.0917 -42.937 84.8818 -176.876 4.51142 84.2613 -21.4553 13.7414 -1.55128 66.8182 5.56222 7.53659 38.2279 9.56235 6.67216 176.373 31.9906 90.3766 -40.6682 0.0103188 -1.34581 60.6516 -0.925063 -0.647881 40.7846 -2.95405 -11.5618 -0.706845 7.37139 -89.7191 12.1353 -1.27214 0.701325 0.464747 -1.24005 0.756638 -22.075 -1.4241 0.286513 -2.06239 -1.4241 0.286507 92.4927 -42.1304 -98.2245 37.6274 -16.2159 19.9663 -10.5622 -12.4664 -46.3681 0.0734105 -0.0902254 1.57813 -93.7213 -46.4439 72.674 -21.277 13.852 1.08659 10.7411 7.28914 -52.4889 16.224 1.28373 4.04249 0.633901 1.92893 0.31463 -1.99655 1.85911 0.637535 
-294.553 94.7522 -291.361 85.5903 -41.4617 85.4871 -175.833 0.878759 85.3224 -22.6033 14.2944 -1.60886 69.1215 6.95465 7.20215 39.3945 10.2318 5.80561 176.233 30.8116 89.9347 -22.5652 -0.878039 -0.651642 53.9144 1.35191 1.08018 40.0041 -2.69561 -11.355 -0.915388 7.44555 -89.7887 11.9884 -1.7203 0.608291 0.318427 -1.69184 0.683427 -22.2258 -1.82356 0.0629847 -2.21318 -1.82356 0.0629824 92.6052 -42.8935 -97.8652 37.0929 -16.2322 21.6273 -11.133 -13.9889 -44.9696 -0.265674 -0.129175 0.782548 -93.9261 -45.9884 72.2243 -17.9064 14.3965 -2.63959 14.1821 7.04633 -57.9294 17.2936 2.20257 8.80328 0.531907 1.4422 -0.328898 -1.78995 1.47322 1.11474 
-290.397 93.399 -287.165 85.7079 -39.58 84.9911 -174.943 -2.57608 85.9732 -22.9529 19.3558 -2.02125 67.8678 8.33325 10.4101 45.1437 15.487 6.32872 176.014 30.1852 88.6319 -7.43377 -3.20344 -0.805528 46.1438 4.48046 3.821 40.1437 -2.827 -11.8631 -1.21051 7.50433 -89.7668 11.8743 -2.2973 0.711145 0.205145 -2.26377 0.811603 -22.3463 -2.40477 -0.0125574 -2.33362 -2.40476 -0.0125533 92.7343 -43.7641 -97.4619 35.7747 -15.4951 22.2288 -11.6797 -15.9571 -43.1272 -0.0995524 -0.130867 1.08337 -93.4193 -45.3352 72.81 -15.1468 11.3501 -6.53405 10.2319 2.73395 -59.7421 15.2939 1.11805 3.4135 0.828007 1.15358 -1.1484 -1.2248 1.31791 1.72956 
-286.111 92.2464 -282.427 86.686 -37.7659 84.5152 -173.806 -7.2052 87.4314 -22.4067 23.7585 -2.34622 66.6138 7.61571 9.0742 48.4866 19.4718 8.11814 174.895 32.6627 87.4372 -7.52819 -3.88761 -0.187403 45.2391 5.8206 4.98076 43.0649 -3.72664 -14.0981 -1.50503 7.56575 -89.6989 11.7563 -2.85172 0.900862 0.0880839 -2.80932 1.02557 -22.4722 -2.99053 0.00140897 -2.45952 -2.99054 0.00140361 93.0249 -44.1904 -96.8931 35.0521 -13.9526 23.584 -13.1318 -16.7988 -42.8452 0.55748 -0.0637064 2.8228 -93.1131 -45.0417 73.1985 -14.1327 9.46293 -9.04715 11.7851 3.15823 -61.655 16.3799 1.33796 4.2526 1.26243 1.04615 -1.19692 -2.13837 1.20974 1.61617 
-281.42 91.343 -277.022 87.6383 -37.7554 86.3973 -172.69 -10.6702 90.6871 -24.3121 25.9095 -1.12846 64.0671 4.61597 6.1587 53.3805 24.4923 8.74137 173.477 32.0687 89.5252 -12.0181 -2.22252 1.5443 46.855 4.94927 4.00381 35.7224 -1.82993 -8.80956 -1.58208 7.59735 -89.8664 11.6909 -3.08391 0.589662 0.0234281 -3.05496 0.724926 -22.541 -3.11844 -0.365366 -2.52836 -3.11842 -0.365371 93.4219 -43.9788 -96.2807 34.678 -13.4124 23.4127 -13.0169 -18.2562 -40.4156 -1.42375 -0.189346 1.58172 -92.7292 -44.9604 73.7723 -15.1759 6.84646 -8.70362 12.1295 2.96549 -63.1361 17.4984 1.55448 4.96926 1.24996 1.08018 -1.30953 -2.66688 1.25106 1.99291 
